<svg width="104" height="16" fill="none" xmlns="http://www.w3.org/2000/svg"><path d="M21.884 14.442V9.559c0-1.202-.645-2.294-1.917-2.294-1.253 0-1.993 1.092-1.993 2.294v4.883h-2.316V5.305h2.145l.17 1.11c.494-.925 1.576-1.258 2.468-1.258 1.12 0 2.24.444 2.772 1.701.835-1.294 1.917-1.664 3.132-1.664 2.658 0 3.968 1.59 3.968 4.328v4.92h-2.316v-4.92c0-1.202-.513-2.22-1.766-2.22-1.253 0-2.031 1.055-2.031 2.257v4.883h-2.316zM34.29 9.82c0 1.739 1.234 2.774 2.772 2.774 3.644 0 3.644-5.53 0-5.53-1.538 0-2.772 1.017-2.772 2.756zm5.619-4.53h2.221v9.158h-2.183l-.114-1.391c-.532 1.073-1.993 1.59-3.037 1.609-2.772.018-4.822-1.646-4.822-4.846 0-3.144 2.145-4.79 4.879-4.772 1.253 0 2.448.573 2.98 1.48l.076-1.237zm4.34.001v9.156h2.316V5.29h-2.316zm2.525-2.64c0 1.756-2.734 1.756-2.734 0 0-1.758 2.734-1.758 2.734 0zm4.37 7.224c0 1.646 1.253 2.681 2.715 2.681 1.48 0 2.657-1.09 2.657-2.681 0-1.647-1.177-2.664-2.657-2.664-1.462 0-2.715 1.073-2.715 2.664zm-.152-8.37v5.059c.55-.944 2.088-1.461 3.075-1.461 2.734 0 4.765 1.627 4.765 4.772 0 2.996-2.07 4.772-4.822 4.772-1.139 0-2.296-.37-3.018-1.462l-.152 1.258h-2.164V1.505h2.316z" fill="#1B2021"/><path d="M12.896 4.514A6.79 6.79 0 007.22 1.5C3.49 1.5.466 4.446.466 8.08c0 .455.047.9.137 1.328 5.75-3.532 10.358-4.588 12.291-4.894zm.138.213c-5.688 2.397-9.418 6.53-10.607 7.984a6.822 6.822 0 004.793 1.945c3.73 0 6.754-2.946 6.754-6.58a6.422 6.422 0 00-.94-3.349z" fill="#40C1AC"/><path d="M63.794 14.667V1.6h2.146v13.067h-2.146zm5.844-10.603c-.396 0-.722-.118-.978-.354a1.228 1.228 0 01-.383-.915c0-.386.128-.697.383-.933.256-.25.582-.374.978-.374.408 0 .74.125.996.374.268.236.402.547.402.933a1.2 1.2 0 01-.402.915c-.256.236-.588.354-.996.354zm-1.073 10.603V5.446h2.145v9.22h-2.145zM78.757 5.24c1.354 0 2.465.442 3.334 1.326.88.883 1.322 2.047 1.322 3.49 0 1.444-.441 2.607-1.322 3.49-.869.885-1.98 1.326-3.334 1.326-1.545 0-2.708-.479-3.487-1.437l-.019 1.232h-1.916V1.6h2.146v4.835c.792-.796 1.884-1.195 3.276-1.195zm-.383 7.728c.856 0 1.552-.267 2.088-.802.537-.548.805-1.251.805-2.11 0-.858-.268-1.555-.805-2.09-.536-.548-1.232-.822-2.088-.822-.843 0-1.539.274-2.088.822-.537.535-.805 1.232-.805 2.09 0 .859.268 1.562.805 2.11.549.535 1.245.802 2.088.802zm11.32-7.709c1.66 0 2.925.498 3.793 1.493.869.996 1.227 2.359 1.073 4.088h-7.567c.09.672.402 1.207.939 1.606.536.398 1.22.597 2.05.597.536 0 1.053-.087 1.551-.261.498-.175.888-.405 1.169-.691l1.303 1.232c-.473.498-1.073.89-1.801 1.176a6.077 6.077 0 01-2.28.43c-1.558 0-2.803-.443-3.736-1.326-.932-.884-1.398-2.066-1.398-3.547 0-1.43.447-2.588 1.34-3.472.907-.883 2.095-1.325 3.564-1.325zm.058 1.81c-.741 0-1.348.187-1.82.56-.473.374-.78.903-.92 1.587h5.498c-.076-.66-.364-1.182-.862-1.568-.485-.385-1.117-.578-1.896-.578zm11.572-1.81c.984 0 1.782.268 2.395.803l-.958 1.698c-.511-.336-1.041-.504-1.59-.504-.766 0-1.38.262-1.839.784-.447.523-.67 1.232-.67 2.128v4.499h-2.146V5.446h1.916l.019 1.418c.715-1.07 1.673-1.605 2.873-1.605z" fill="#FFB81C"/></svg>