<svg xmlns="http://www.w3.org/2000/svg"><symbol viewBox="0 0 16 16" id="smallArrow"><path d="M3.643 6.75l3.086 3.086a2 2 0 002.828 0l3.086-3.086" stroke-width="1.25" stroke-linecap="round" stroke-linejoin="round" xmlns="http://www.w3.org/2000/svg"/></symbol><symbol viewBox="0 0 16 16" id="phoneIcon"><path d="M12.219 15c-.61 0-1.467-.22-2.75-.938-1.56-.874-2.767-1.682-4.32-3.23-1.496-1.495-2.224-2.464-3.243-4.318C.755 4.42.951 3.323 1.171 2.854c.26-.56.646-.896 1.145-1.229a5.51 5.51 0 01.981-.513c.155-.07.39-.175.686-.062.198.074.375.226.652.5.568.56 1.344 1.807 1.63 2.42.192.412.32.685.32.99 0 .358-.18.634-.399.932-.04.056-.081.11-.12.161-.239.313-.29.403-.256.564.07.324.59 1.289 1.443 2.141.854.852 1.791 1.34 2.116 1.409.168.036.26-.019.583-.265l.144-.109c.333-.247.596-.423.945-.423h.002c.304 0 .565.132.996.35.562.283 1.847 1.05 2.41 1.618.274.276.427.452.502.65.112.298.006.531-.063.688l-.037.086c-.132.311-.292.61-.478.893-.332.497-.669.881-1.23 1.143a2.107 2.107 0 01-.924.202z" xmlns="http://www.w3.org/2000/svg"/></symbol><symbol viewBox="0 0 24 24" id="smallTailArrow"><path d="M5 12h13m-6-7l5.586 5.586a2 2 0 010 2.828L12 19" xmlns="http://www.w3.org/2000/svg" stroke-width="1.25" stroke-linecap="round" stroke-linejoin="round"/></symbol><symbol viewBox="0 0 64 64" id="timerIcon"><g xmlns="http://www.w3.org/2000/svg" stroke="#D8814E" stroke-width="3.5"><path d="M32 29V19m-15.5-2.5L15 15m17-4V9v2z" stroke-linecap="round" stroke-linejoin="round"/><path d="M32 38a4 4 0 100-8 4 4 0 000 8z" stroke-miterlimit="10"/><path d="M32 12a22 22 0 100 44 22 22 0 000-44z" stroke-miterlimit="10"/></g></symbol><symbol viewBox="0 0 64 64" id="likeIcon"><g fill="none" xmlns="http://www.w3.org/2000/svg" stroke="#D8814E" stroke-width="3.5"><path d="M40 57.27S38 58 32 58s-9.25-2-12-4h-8a8 8 0 01-8-8v-6a8 8 0 018-8h3.75a4.043 4.043 0 003.421-1.925s1.079-2.349 4.329-7.977C26.75 16.468 33 8 34 6c3.625 0 5.375 2.75 4.25 5.964-1.285 3.673-2.964 6.797-3.432 10.886-.068.598.392 1.5.993 1.5L52 25.625" stroke-linecap="round" stroke-linejoin="round"/><path d="M52 33.875l-10-.25c-2.5-.23-4-1.55-4-3.75s1.75-3.605 4-3.75l10-.5c2.2 0 4 2.05 4 4.25v.021a4 4 0 01-4 3.979zM56 42l-14-.25c-2.25-.105-4-1.551-4-3.75 0-2.201 1.75-3.608 4-3.75L56 34a4.013 4.013 0 014 4 4.013 4.013 0 01-4 4v0zm-6 16l-8-.375c-2.625-.23-4-1.425-4-3.625s1.8-3.75 4-3.75l8-.25a4.01 4.01 0 014 4 4.01 4.01 0 01-4 4v0zm4-8l-12-.25c-2.375-.105-4-1.55-4-3.75s1.625-3.605 4-3.75L54 42a4.01 4.01 0 014 4 4.01 4.01 0 01-4 4z" stroke-miterlimit="10"/></g></symbol><symbol viewBox="0 0 64 64" id="pencilIcon"><path d="M45.516 15.656L10.875 50.375 8 56l5.624-2.875 34.72-34.641-2.828-2.828zm7.07-7.07l-2.827 2.828 2.827 2.829 2.828-2.83a2 2 0 000-2.827v0a2 2 0 00-2.828 0v0z" stroke="#D8814E" stroke-width="3.5" stroke-linecap="round" stroke-linejoin="round" fill="none" xmlns="http://www.w3.org/2000/svg"/></symbol><symbol viewBox="0 0 64 64" id="triangleRulerIcon"><path d="M22.365 19.467h10.706m24.262 35.2H30.667h26.666zm-5.709-48H28l-21.333 48h23.549l21.408-48zM13.279 39.843h10.704-10.704zm4.408-9.883H28.39 17.687z" stroke="#D8814E" stroke-width="3.5" stroke-linecap="round" stroke-linejoin="round" fill="none" xmlns="http://www.w3.org/2000/svg"/></symbol><symbol viewBox="0 0 64 64" id="fiveYearsGuarantee"><g fill="none" xmlns="http://www.w3.org/2000/svg" stroke="#D8814E" stroke-width="3.5" stroke-linecap="round" stroke-linejoin="round"><path d="M52 8H12a4 4 0 00-4 4v40a4 4 0 004 4h40a4 4 0 004-4V12a4 4 0 00-4-4z"/><path d="M38.667 18.68h-8a4 4 0 00-4 4v5.365c0-.045 2.666-1.378 6.666-1.378s5.334 2.712 5.334 8S37.333 44 32 44c-4 0-5.333-2.667-5.333-5.323"/></g></symbol><symbol viewBox="0 0 64 64" id="rightPrice"><g fill="none" xmlns="http://www.w3.org/2000/svg"><path d="M54.406 6H39.044c-.478 0-.936.188-1.275.525L7.056 37.237a3.606 3.606 0 000 5.088L21.681 56.95a3.606 3.606 0 005.088 0l30.7-30.7c.336-.339.525-.797.525-1.275V9.6A3.581 3.581 0 0054.406 6v0z" stroke="#D8814E" stroke-width="3.5" stroke-linecap="round" stroke-linejoin="round"/><path d="M48 20a4 4 0 110-8 4 4 0 010 8z" fill="#D8814E"/></g></symbol><symbol viewBox="0 0 24 24" id="facebookIcon"><path d="M13.397 20.997v-8.196h2.765l.411-3.209h-3.176V7.548c0-.926.258-1.56 1.587-1.56h1.684v-2.86A22.108 22.108 0 0014.201 3c-2.444 0-4.122 1.492-4.122 4.231v2.355H7.332v3.21h2.753v8.201h3.312z" xmlns="http://www.w3.org/2000/svg"/></symbol><symbol viewBox="0 0 24 24" id="instagramIcon"><path d="M12 7.192A4.8 4.8 0 007.193 12 4.8 4.8 0 0012 16.807 4.8 4.8 0 0016.807 12 4.8 4.8 0 0012 7.191zm0 7.932a3.13 3.13 0 01-3.124-3.125A3.13 3.13 0 0112 8.875 3.13 3.13 0 0115.124 12 3.13 3.13 0 0112 15.124zm5.004-9.249a1.122 1.122 0 100 2.246 1.12 1.12 0 001.037-1.553 1.122 1.122 0 00-1.037-.693zM21.37 12c0-1.293.012-2.575-.06-3.867-.073-1.5-.415-2.83-1.512-3.928-1.1-1.099-2.428-1.439-3.928-1.512-1.294-.072-2.576-.06-3.868-.06-1.293 0-2.575-.012-3.867.06-1.5.073-2.831.415-3.928 1.512-1.1 1.1-1.439 2.428-1.512 3.928-.072 1.294-.06 2.576-.06 3.867 0 1.292-.012 2.576.06 3.868.073 1.5.415 2.831 1.512 3.928 1.1 1.1 2.428 1.439 3.928 1.512 1.294.072 2.576.06 3.867.06 1.294 0 2.576.012 3.867-.06 1.5-.073 2.832-.415 3.929-1.512 1.099-1.1 1.439-2.428 1.511-3.928.075-1.292.061-2.574.061-3.868zm-2.062 5.527A2.977 2.977 0 0118.6 18.6a2.99 2.99 0 01-1.073.708c-1.233.49-4.16.38-5.527.38-1.366 0-4.296.11-5.529-.377a2.98 2.98 0 01-1.073-.708 2.999 2.999 0 01-.708-1.074c-.488-1.235-.378-4.162-.378-5.528 0-1.367-.11-4.297.378-5.53a2.96 2.96 0 01.708-1.073A3.03 3.03 0 016.47 4.69c1.233-.487 4.163-.377 5.529-.377 1.366 0 4.296-.11 5.529.377.427.171.745.378 1.073.708.33.33.537.647.708 1.074.488 1.232.378 4.162.378 5.528 0 1.367.11 4.294-.38 5.527z" xmlns="http://www.w3.org/2000/svg"/></symbol><symbol viewBox="0 0 24 24" id="closeIcon"><path d="M6 6l12 12M6 18L18 6 6 18z" stroke-width="1.5" stroke-linecap="round" stroke-linejoin="round" xmlns="http://www.w3.org/2000/svg"/></symbol><symbol viewBox="0 0 32 32" id="messageIcon"><path d="M28 15.333a11.173 11.173 0 01-1.2 5.067 11.333 11.333 0 01-10.133 6.267 11.173 11.173 0 01-5.067-1.2L4 28l2.533-7.6a11.173 11.173 0 01-1.2-5.067A11.333 11.333 0 0111.6 5.2 11.173 11.173 0 0116.667 4h.666A11.306 11.306 0 0128 14.667v.666z" stroke="#fff" stroke-width="1.5" stroke-linecap="round" stroke-linejoin="round" fill="none" xmlns="http://www.w3.org/2000/svg"/></symbol><symbol viewBox="0 0 32 32" id="viberMessengerIcon"><path fill-rule="evenodd" clip-rule="evenodd" d="M15.368 2.67c-2.029.026-6.392.377-8.832 2.739-1.815 1.896-2.449 4.701-2.523 8.17-.062 3.455-.136 9.944 5.795 11.71v2.692s-.038 1.077.637 1.298c.69.23 1.132-.3 1.714-.994.12-.144.246-.295.381-.447l1.474-1.758c4.058.356 7.166-.464 7.524-.586.072-.024.174-.052.3-.085 1.31-.348 5.228-1.39 5.919-7.308.777-6.702-.379-10.926-2.466-12.836h-.012c-.63-.612-3.161-2.557-8.816-2.579 0 0-.42-.029-1.095-.016zm-3.716 5.539a.947.947 0 00-.646.134h-.017a5.05 5.05 0 00-1.206 1.046c-.288.352-.445.708-.486 1.05a1.5 1.5 0 00.05.604l.02.013a15.42 15.42 0 001.268 2.887 16.974 16.974 0 002.445 3.525l.028.043.045.035.029.035.033.03a16.41 16.41 0 003.35 2.591c1.391.799 2.235 1.176 2.742 1.333v.009c.148.047.284.069.42.069a1.89 1.89 0 001.16-.525c.39-.367.722-.798.98-1.277v-.008c.243-.482.16-.937-.19-1.246a14.63 14.63 0 00-2.264-1.714c-.538-.309-1.086-.122-1.308.19l-.474.63c-.242.312-.683.27-.683.27l-.013.007c-3.288-.886-4.165-4.397-4.165-4.397s-.041-.477.263-.72l.593-.504c.284-.244.481-.82.177-1.39a15.007 15.007 0 00-1.622-2.388.894.894 0 00-.53-.334v.002zm5.21 3.469c-.428-.014-.411-.695.021-.682h.013c1.366.078 2.136.917 2.21 2.405a.354.354 0 01-.081.246.319.319 0 01-.223.11h-.013a.306.306 0 01-.22-.095.34.34 0 01-.093-.23c-.066-1.142-.572-1.697-1.613-1.754zm-.498-2.479c-.42 0-.42.669.004.669a3.798 3.798 0 011.516.345 3.99 3.99 0 011.274.93c.331.386.585.837.748 1.327.163.491.23 1.011.199 1.53a.345.345 0 00.095.233.31.31 0 00.222.097l.012.017a.311.311 0 00.224-.098.346.346 0 00.093-.236c.029-1.324-.362-2.435-1.127-3.325-.77-.89-1.844-1.39-3.215-1.489h-.045zm-.668-1.73a.3.3 0 01.121-.024c1.864 0 3.45.663 4.7 1.952a7.24 7.24 0 011.47 2.44c.33.909.479 1.88.44 2.852a.343.343 0 01-.094.234.308.308 0 01-.223.096v.014a.326.326 0 01-.316-.335c-.022-2.066-.581-3.646-1.73-4.822a5.913 5.913 0 00-1.956-1.331 5.665 5.665 0 00-2.29-.436.326.326 0 01-.318-.334.347.347 0 01.094-.235.313.313 0 01.102-.071z" fill="#fff" xmlns="http://www.w3.org/2000/svg"/></symbol><symbol viewBox="0 0 32 32" id="whatsupMessengerIcon"><path d="M26.88 9.12c-3.84-5.92-11.68-7.68-17.76-4-5.92 3.68-7.84 11.68-4 17.6l.32.48L4.16 28l4.8-1.28.48.32c2.08 1.12 4.32 1.76 6.56 1.76 2.4 0 4.8-.64 6.88-1.92 5.92-3.84 7.68-11.68 4-17.76zm-3.36 12.32c-.64.96-1.44 1.6-2.56 1.76-.64 0-1.44.32-4.64-.96-2.72-1.28-4.96-3.36-6.56-5.76-.96-1.12-1.44-2.56-1.6-4 0-1.28.48-2.4 1.28-3.2.32-.32.64-.48.96-.48h.8c.32 0 .64 0 .8.64.32.8 1.12 2.72 1.12 2.88.16.16.16.48 0 .64.16.32 0 .64-.16.8-.16.16-.32.48-.48.64-.32.16-.48.48-.32.8.64.96 1.44 1.92 2.24 2.72.96.8 1.92 1.44 3.04 1.92.32.16.64.16.8-.16.16-.32.96-1.12 1.28-1.44.32-.32.48-.32.8-.16l2.56 1.28c.32.16.64.32.8.48.16.48.16 1.12-.16 1.6z" fill="#fff" xmlns="http://www.w3.org/2000/svg"/></symbol><symbol viewBox="0 0 32 32" id="facebookMessengerIcon"><path d="M16 2.667c7.512 0 13.333 5.502 13.333 12.933 0 7.43-5.821 12.933-13.333 12.933a14.528 14.528 0 01-3.86-.512 1.066 1.066 0 00-.712.052l-2.645 1.168a1.067 1.067 0 01-1.498-.942l-.073-2.374a1.062 1.062 0 00-.357-.76C4.26 22.847 2.667 19.49 2.667 15.6 2.667 8.17 8.489 2.667 16 2.667zM7.993 19.383c-.376.596.358 1.268.919.841l4.207-3.192a.8.8 0 01.964 0l3.116 2.333a2 2 0 002.892-.533l3.916-6.213c.376-.598-.358-1.27-.919-.844l-4.207 3.194a.8.8 0 01-.964 0l-3.116-2.333a1.999 1.999 0 00-2.892.533l-3.916 6.214z" fill="#fff" xmlns="http://www.w3.org/2000/svg"/></symbol><symbol viewBox="0 0 32 32" id="justMessengerIcon"><g xmlns="http://www.w3.org/2000/svg" fill="#fff"><path d="M28 19.527c.048-.07.094-.141.142-.209A10.91 10.91 0 0030 13.241C30.02 7.034 24.784 2 18.309 2 12.66 2 7.949 5.843 6.846 10.945a10.8 10.8 0 00-.25 2.302c0 6.212 5.035 11.382 11.51 11.382 1.03 0 2.416-.31 3.177-.518.76-.21 1.514-.485 1.71-.56.194-.073.5-.15.743-.08l4.838 1.399a.25.25 0 00.313-.304l-1.108-4.218c-.077-.312-.087-.371.22-.821z"/><path d="M19.534 25.961c-.481.077-.967.12-1.454.128-2.652 0-5.156-.7-7.188-2.012a11.506 11.506 0 01-3.318-3.083c-1.63-2.16-2.518-4.907-2.518-7.78 0-.196.006-.384.013-.573a.271.271 0 00-.47-.195 9.922 9.922 0 00-.93 12.203c.155.235.242.417.215.538l-.88 4.517a.25.25 0 00.326.283l4.25-1.515a1.051 1.051 0 01.807.014c1.272.5 2.68.807 4.086.807a10.59 10.59 0 007.29-2.875.269.269 0 00-.23-.457z"/></g></symbol></svg>