<svg width="36" height="36" fill="none" xmlns="http://www.w3.org/2000/svg"><path d="M14.39 12.167l-3.928 9.121H7.9l-1.933-7.28c-.117-.447-.219-.612-.575-.8-.583-.31-1.546-.597-2.392-.777l.057-.264h4.126c.525 0 .997.34 1.118.93l1.02 5.278 2.522-6.208h2.547zm3.464 0l-2.004 9.121h-2.424l2.004-9.121h2.425zm6.576 6.143c.01-2.407-3.418-2.54-3.396-3.616.008-.327.328-.675 1.028-.764.347-.044 1.306-.079 2.391.408l.425-1.935A6.694 6.694 0 0022.61 12c-2.396 0-4.082 1.24-4.095 3.015-.016 1.313 1.204 2.045 2.121 2.483.945.447 1.262.734 1.258 1.133-.007.612-.755.883-1.45.893-1.22.019-1.926-.32-2.49-.576l-.44 2c.567.252 1.612.472 2.695.483 2.548 0 4.214-1.225 4.221-3.121zm6.329 2.978H33l-1.958-9.121h-2.068c-.467 0-.859.263-1.032.668l-3.638 8.453h2.546l.505-1.363h3.11l.294 1.363zm-2.706-3.232l1.276-3.425.733 3.425h-2.01zM20.957 23.8h-.985v.892h1.102v.268H19.64v-2.475h1.377v.268h-1.045v.782h.985v.265zm.626-1.447h.332v2.607h-.332v-2.607zm1.169 1.777c.008.438.29.617.626.617.238 0 .385-.04.506-.091l.06.231c-.117.052-.32.114-.611.114-.562 0-.898-.364-.898-.9s.325-.955.857-.955c.6 0 .754.507.754.834a.763.763 0 01-.011.15h-1.283zm.973-.231c.004-.202-.086-.522-.46-.522-.34 0-.483.298-.51.522h.97zm2.128.999c-.087.04-.28.103-.525.103-.55 0-.909-.364-.909-.907 0-.548.385-.948.981-.948.196 0 .37.047.46.096l-.075.245a.833.833 0 00-.385-.084c-.419 0-.645.305-.645.672 0 .412.272.665.634.665a.972.972 0 00.407-.084l.057.242zm.931-2.141v.426h.476v.245h-.476v.96c0 .22.065.345.25.345a.63.63 0 00.192-.022l.015.246a.933.933 0 01-.294.044.48.48 0 01-.359-.136c-.09-.1-.128-.257-.128-.466v-.97h-.283v-.246h.283v-.33l.324-.096zm.94.98a8.3 8.3 0 00-.016-.554h.29l.016.352h.011c.083-.238.287-.39.51-.39.033 0 .06.005.09.008v.305c-.034-.007-.068-.007-.113-.007-.234 0-.4.169-.445.411a.961.961 0 00-.012.15v.949h-.332v-1.224zm2.942.32c0 .657-.472.944-.91.944-.49 0-.875-.353-.875-.915 0-.591.404-.94.906-.94.524 0 .879.37.879.91zm-1.445.018c0 .39.226.684.55.684.318 0 .555-.29.555-.691 0-.301-.154-.68-.547-.68-.388 0-.558.353-.558.687zm1.954-.411c0-.187-.004-.335-.015-.481h.294l.019.294h.007a.68.68 0 01.604-.331c.253 0 .645.147.645.756v1.058h-.332v-1.024c0-.287-.11-.526-.422-.526a.477.477 0 00-.468.482v1.069h-.332v-1.297z" fill="#0170BA"/></svg>